<mxfile host="app.diagrams.net" modified="2024-04-06T21:11:05.262Z" agent="Mozilla/5.0 (Windows NT 10.0; Win64; x64) AppleWebKit/537.36 (KHTML, like Gecko) Chrome/123.0.0.0 Safari/537.36" etag="n2V0X5Ru0VVRwf2b-hv8" version="24.2.2" type="device">
  <diagram name="Page-1" id="GAN07FmCB9ysgUWjwxFG">
    <mxGraphModel dx="1631" dy="884" grid="1" gridSize="10" guides="1" tooltips="1" connect="1" arrows="1" fold="1" page="1" pageScale="1" pageWidth="1600" pageHeight="900" math="0" shadow="0">
      <root>
        <mxCell id="0" />
        <mxCell id="1" parent="0" />
        <mxCell id="UzYj1161WQsTMsJB3dDt-2" value="order_data" style="shape=cylinder3;whiteSpace=wrap;html=1;boundedLbl=1;backgroundOutline=1;size=15;" vertex="1" parent="1">
          <mxGeometry x="910" y="100" width="80" height="90" as="geometry" />
        </mxCell>
        <mxCell id="UzYj1161WQsTMsJB3dDt-3" value="Check if the current&amp;nbsp;&lt;div&gt;time is between&amp;nbsp;&lt;/div&gt;&lt;div&gt;market hours&amp;nbsp;&lt;/div&gt;&lt;div&gt;(9 am to 4pm)&lt;/div&gt;" style="rhombus;whiteSpace=wrap;html=1;" vertex="1" parent="1">
          <mxGeometry x="250" y="227.5" width="180" height="145" as="geometry" />
        </mxCell>
        <mxCell id="UzYj1161WQsTMsJB3dDt-4" value="START" style="rounded=1;whiteSpace=wrap;html=1;" vertex="1" parent="1">
          <mxGeometry x="50" y="270" width="120" height="60" as="geometry" />
        </mxCell>
        <mxCell id="UzYj1161WQsTMsJB3dDt-5" value="" style="shape=process;whiteSpace=wrap;html=1;backgroundOutline=1;" vertex="1" parent="1">
          <mxGeometry x="680" y="320" width="120" height="60" as="geometry" />
        </mxCell>
        <mxCell id="UzYj1161WQsTMsJB3dDt-6" value="Ticker Thread" style="text;html=1;align=center;verticalAlign=middle;whiteSpace=wrap;rounded=0;" vertex="1" parent="1">
          <mxGeometry x="30" y="20" width="190" height="60" as="geometry" />
        </mxCell>
        <mxCell id="UzYj1161WQsTMsJB3dDt-7" value="ticker_data" style="shape=cylinder3;whiteSpace=wrap;html=1;boundedLbl=1;backgroundOutline=1;size=15;" vertex="1" parent="1">
          <mxGeometry x="750" y="100" width="80" height="90" as="geometry" />
        </mxCell>
      </root>
    </mxGraphModel>
  </diagram>
</mxfile>
